<?xml version="1.0" encoding="utf-8"?>
<!-- Generator: Adobe Illustrator 27.2.0, SVG Export Plug-In . SVG Version: 6.00 Build 0)  -->
<svg version="1.1" xmlns="http://www.w3.org/2000/svg" xmlns:xlink="http://www.w3.org/1999/xlink" x="0px" y="0px"
	 viewBox="0 0 16 16" style="enable-background:new 0 0 16 16;" xml:space="preserve">
<style type="text/css">
	.st0{fill:#313E72;}
	.st1{fill:#FCD6CD;}
</style>
<g id="Capa_3">
</g>
<g id="Capa_1">
	<g id="Capa_2">
	</g>
	<path class="st0" d="M11.5,4V3.5C11.5,1.6,9.9,0,8,0S4.5,1.6,4.5,3.5V4H1v10c0,1.1,0.9,2,2,2h10c1.1,0,2-0.9,2-2V4H11.5z M5.5,3.5
		C5.5,2.1,6.6,1,8,1s2.5,1.1,2.5,2.5V4h-5V3.5z M14,14c0,0.5-0.5,1-1,1H3c-0.5,0-1-0.5-1-1V5h12V14z"/>
	<path class="st1" d="M10.5,3.5V4h-5V3.5C5.5,2.1,6.6,1,8,1S10.5,2.1,10.5,3.5z"/>
	<path class="st1" d="M14,5v9c0,0.5-0.5,1-1,1H3c-0.5,0-1-0.5-1-1V5H14z"/>
</g>
</svg>
