<?xml version="1.0" encoding="UTF-8"?>
<svg id="Capa_9" data-name="Capa 9" xmlns="http://www.w3.org/2000/svg" viewBox="0 0 174 174">
  <defs>
    <style>
      .cls-1 {
        fill: none;
      }

      .cls-1, .cls-2, .cls-3, .cls-4 {
        stroke: #313e72;
        stroke-miterlimit: 10;
        stroke-width: 3px;
      }

      .cls-5, .cls-2, .cls-4 {
        fill: #fcd6cd;
      }

      .cls-6 {
        fill: #df8881;
      }

      .cls-7, .cls-3 {
        fill: #313e72;
      }

      .cls-2 {
        stroke-linecap: round;
      }
    </style>
  </defs>
  <circle class="cls-4" cx="87" cy="87" r="85.5"/>
  <path class="cls-2" d="m135,157V49.5S135,1.5,87,1.5s-48,48-48,48v107.5"/>
  <line class="cls-1" x1="39" y1="49.92" x2="135" y2="49.92"/>
  <line class="cls-1" x1="39" y1="90.89" x2="135" y2="90.89"/>
  <line class="cls-1" x1="135" y1="148.68" x2="39" y2="148.68"/>
  <path class="cls-3" d="m99.85,49.92s-1.85,12.58-13.85,12.58-13.21-12.58-13.21-12.58"/>
  <line class="cls-4" x1="87" y1="1.5" x2="87" y2="28.5"/>
  <line class="cls-4" x1="107.47" y1="5.62" x2="95.91" y2="30.2"/>
  <line class="cls-4" x1="122.96" y1="17.91" x2="104.69" y2="35.05"/>
  <line class="cls-4" x1="131.3" y1="33.24" x2="111.51" y2="40.97"/>
  <line class="cls-4" x1="66.14" y1="5.62" x2="77.9" y2="30.2"/>
  <line class="cls-4" x1="50.29" y1="18.16" x2="69.38" y2="34.64"/>
  <line class="cls-4" x1="42.45" y1="32.6" x2="61.57" y2="41"/>
  <line class="cls-4" x1="135" y1="69.57" x2="110.59" y2="58.68"/>
  <line class="cls-4" x1="135" y1="90.5" x2="104.04" y2="63.88"/>
  <line class="cls-4" x1="111" y1="90.5" x2="97.12" y2="67.85"/>
  <line class="cls-4" x1="86.45" y1="90.89" x2="86.45" y2="70.49"/>
  <line class="cls-4" x1="75.59" y1="68.07" x2="62.58" y2="90.89"/>
  <line class="cls-4" x1="39" y1="90.5" x2="69.08" y2="64.34"/>
  <line class="cls-4" x1="39" y1="69.34" x2="62.58" y2="59.04"/>
  <path class="cls-1" d="m118.91,49.92s-13.91-21.42-31.91-21.42-33,21-33,21c0,0,15,21,32,21s32.91-20.58,32.91-20.58Z"/>
  <g>
    <path class="cls-5" d="m69,43.5s17-17,35,0"/>
    <path class="cls-7" d="m69,43.5c1.96-2.68,4.65-4.82,7.63-6.41,2.99-1.6,6.4-2.56,9.89-2.64,3.48-.06,6.98.81,9.97,2.46,3,1.64,5.57,3.9,7.51,6.59-2.79-1.78-5.58-3.35-8.48-4.46-2.91-1.08-5.92-1.64-8.95-1.59-3.03.06-6.05.71-8.99,1.77-2.93,1.09-5.79,2.53-8.59,4.28Z"/>
  </g>
  <g>
    <path class="cls-6" d="m58.08,101.69h3.68v16.1h-3.68v-16.1Z"/>
    <path class="cls-6" d="m73.49,101.69h3.68v16.1h-2.76l-6.21-8.74v8.74h-3.68v-16.1h2.76l6.21,8.74v-8.74Z"/>
    <path class="cls-6" d="m90.74,101.69v3.54h-4.14v12.56h-3.68v-12.56h-4.14v-3.54h11.96Z"/>
    <path class="cls-6" d="m96.03,114.25h6.44v3.54h-10.12v-16.1h10v3.54h-6.32v2.67h5.75v3.5h-5.75v2.85Z"/>
    <path class="cls-6" d="m113,117.79l-3.04-5.29h-1.74v5.29h-3.68v-16.1h6.44c1.53,0,2.84.54,3.91,1.61,1.07,1.07,1.61,2.38,1.61,3.91,0,.98-.27,1.89-.82,2.73-.54.84-1.26,1.48-2.15,1.94l3.43,5.91h-3.96Zm-4.78-12.65v4.14h2.76c.51,0,.94-.2,1.3-.6.36-.4.54-.89.54-1.47s-.18-1.07-.54-1.47c-.36-.4-.79-.6-1.3-.6h-2.76Z"/>
    <path class="cls-6" d="m53.44,137.11c-1.64,0-3.01-.36-4.11-1.07-1.1-.71-1.87-1.68-2.33-2.91l3.17-1.84c.64,1.49,1.77,2.23,3.38,2.23,1.46,0,2.19-.44,2.19-1.31,0-.48-.23-.85-.7-1.12-.47-.27-1.35-.58-2.63-.93-.67-.18-1.27-.39-1.77-.62s-1-.53-1.48-.91-.85-.85-1.1-1.41-.38-1.22-.38-1.96c0-1.49.53-2.68,1.6-3.56s2.33-1.33,3.81-1.33c1.32,0,2.48.31,3.5.93,1.01.62,1.81,1.52,2.39,2.7l-3.1,1.82c-.29-.61-.65-1.08-1.08-1.39-.43-.31-1-.47-1.7-.47-.55,0-.98.12-1.28.36-.3.24-.45.53-.45.86,0,.4.19.74.56,1.04.38.29,1.15.61,2.33.97.64.2,1.14.36,1.5.48.35.12.8.33,1.35.61.54.28.96.58,1.24.9.28.31.54.73.76,1.24.22.51.33,1.1.33,1.76,0,1.53-.55,2.74-1.66,3.62-1.1.88-2.55,1.32-4.32,1.32Z"/>
    <path class="cls-6" d="m71.5,120.69v3.54h-4.14v12.56h-3.68v-12.56h-4.14v-3.54h11.96Z"/>
    <path class="cls-6" d="m83.67,135.62c-1.17,1-2.65,1.49-4.46,1.49s-3.3-.5-4.46-1.49c-1.17-1-1.75-2.34-1.75-4.03v-10.9h3.68v10.58c0,1.5.84,2.25,2.53,2.25s2.53-.75,2.53-2.25v-10.58h3.68v10.9c0,1.69-.58,3.03-1.75,4.03Z"/>
    <path class="cls-6" d="m94.5,120.69c2.22,0,4.08.77,5.58,2.31s2.24,3.45,2.24,5.74-.75,4.2-2.24,5.74-3.35,2.31-5.58,2.31h-6.44v-16.1h6.44Zm0,12.56c1.27,0,2.3-.41,3.09-1.23.79-.82,1.18-1.91,1.18-3.28s-.4-2.46-1.18-3.28c-.79-.82-1.82-1.23-3.09-1.23h-2.76v9.02h2.76Z"/>
    <path class="cls-6" d="m104.39,120.69h3.68v16.1h-3.68v-16.1Z"/>
    <path class="cls-6" d="m124.44,134.7c-1.63,1.61-3.6,2.41-5.93,2.41s-4.31-.8-5.93-2.41c-1.63-1.61-2.44-3.6-2.44-5.96s.81-4.35,2.44-5.96c1.62-1.61,3.6-2.42,5.93-2.42s4.31.8,5.93,2.42c1.62,1.61,2.44,3.6,2.44,5.96s-.81,4.35-2.44,5.96Zm-9.28-2.51c.9.89,2.01,1.33,3.35,1.33s2.45-.44,3.35-1.33c.9-.89,1.35-2.04,1.35-3.45s-.45-2.56-1.35-3.45c-.9-.89-2.01-1.33-3.35-1.33s-2.45.44-3.35,1.33c-.9.89-1.35,2.04-1.35,3.45s.45,2.56,1.35,3.45Z"/>
  </g>
  <g>
    <path class="cls-7" d="m63.52,159.23l-.12.07-.13-.11.1-.13.16.03v.14Zm3.77,3.89l-.03.23-.08.26-.12.22-.17.17-.22.19-.19.07-.21.12-.18.08-.26.02h-.52l-.17-.13-.23-.02-.32-.08-.27-.11-.16-.13-.17-.07-.1-.19-.09-.18v-.24l.09-.24.07-.15.12-.17.14-.02.07.14-.07.18-.02.21v.24l.12.18.22.08.23.09.21.08.34.03.22.1.27-.07.22-.07.17-.1.22-.16.17-.13.12-.12.02-.23v-.27l-.08-.21-.17-.22-.24-.08-.28-.14-.11-.1-.31-.16-.22-.13-.24-.1-.15-.08-.22-.06-.15-.02-.21-.12-.19-.12-.12-.21-.12-.17-.08-.22-.02-.26.07-.23.02-.21.1-.24.13-.2.14-.19.03-.1.12-.15h.16l.05-.17.18-.05.19-.1.22-.02.25-.04.32-.1.29-.07h.24l.23.07.17.1.2.16.12.08.13.19.05.12v.24l-.12.18-.12.12-.21.08-.34.03-.27-.03-.23-.02-.26.05-.24.12-.17.12-.16.17-.07.24.1.18.16.14.22.05.16.12.15.13.17.14.15.17.16.03.13.07.12.15.16.07.15.09.17.15.13.17.02.24.05.27.03.24Z"/>
    <path class="cls-7" d="m73.43,163.75l-.08.14-.11.07-.13.02-.12-.03-.07-.08-.13-.16-.17-.13-.12-.12-.22-.47-.03-.2-.06-.17-.05-.13h-.07l-.08.1-.1.17-.06.16-.05.17-.08.17-.1.15-.12.14-.13.18-.22.12-.17.08-.32.08-.26.02-.2-.03-.22-.12-.27-.07-.18-.15-.22-.12-.13-.14-.19-.17-.07-.26-.1-.27-.07-.27-.07-.32-.07-.19.05-.26-.08-.31-.02-.17-.02-.26-.03-.22-.03-.16.02-.22.05-.17.17-.18.22-.09.17-.02.22.03.21.11.15.12.14.21.08.18.07.26-.03.18-.12.16-.11.18-.02.24-.08.27v.23l.02.32.08.34.12.16.13.22.24.17.23.12.29.08.22-.08.22-.12.17-.17.17-.27.12-.22.1-.22.08-.23.07-.31.04-.36-.07-.31-.05-.27-.05-.12.03-.22-.02-.22.03-.17.05-.15.03-.22.09-.13.1-.07.15.05.07.13.02.12.07.17-.02.17v.26l-.07.26v.12l-.07.1.04.21.03.24.08.22.02.34.08.22.07.29.03.23.09.26.1.19.13.17.14.15.37.17.05.12Zm-2.86-2.16l-.03.39-.24.24-.2-.19-.14-.28.02-.31-.08-.17.1-.1.17.02.17.1.24.31Z"/>
    <path class="cls-7" d="m77.75,160.11l-.12.03-.16-.02h-.15l-.22.03-.27.16-.13.18-.27.12-.12.14-.22.2-.1.21-.07.19v.25l-.07.19-.07.2-.07.22-.02.24v.54l-.02.24-.07.24-.02.23-.03.26v.24l-.12.25-.15.14-.22.07-.15.03-.13-.03-.12-.13-.07-.16-.07-.17.02-.19-.02-.27v-.39l-.02-.18.02-.21.02-.27v-.23l.03-.27.02-.27-.02-.31v-.25l-.03-.21-.02-.19-.14-.23-.12-.19-.07-.2-.02-.22.03-.21.08-.15.14-.1.23-.08.26-.12.22.03.28.12.03.17.12.22v.34l.1.1.1.02.14-.03.17-.13.22-.14.26-.12.22-.12.26-.03.27-.07h.15l.21.07.07.12v.12Z"/>
    <path class="cls-7" d="m81.85,154.24l-.07.16-.32.18h-.33l-.26.02-.21.07-.22.12-.24.19-.16.2-.03.22-.13.25-.08.31-.08.32-.06.34-.02.39-.08.29.03.31v.63l.03.23.02.14.14.13.18.08.36.02.12.07.2-.03.26.03h.29l.31.13.12.08.17.11-.1.07-.71.22h-.26l-.44.14-.22.02-.33.22-.06.11v.63l-.02.44.02.25-.02.26v.66l-.02.29-.07.27v.25l-.02.32-.03.32-.05.42-.16.34-.07.32-.12.36-.05.32v.26l-.03.26v.28l-.02.31.05.24-.12.17-.15.06-.1-.16v-.31l.07-.56.02-.37.02-.24-.02-.29.08-.26.05-.33.09-.31.12-.45v-.27l.03-.27.02-.31-.02-2.92-.15-.08-.24.07-.22.03-.17.05-.27-.02-.21-.07-.28-.29-.09-.16-.02-.12.02-.18.14-.19.18-.13.44-.07h.19l.21.04.2-.12.07-.1v-.13l-.03-.29-.05-.32-.08-.31-.02-.21.02-.2-.08-.46v-.24l-.02-.26.08-.47.02-.31.15-.46.11-.26.12-.22.1-.22.05-.19.03-.24.16-.2.17-.12.22-.12.26-.07.22-.02.24-.07.31.07.26.08.18.08.36.38.14.17.02.17Z"/>
    <path class="cls-7" d="m87.06,162.03l-.1.06-.31.07h-.36l-.21-.08-.18.02-.32-.02-.39-.04-.31.04-.27.02-.36.07-.54.03-.21.07-.52.12h-.26l-.47-.07-.19-.08-.12-.15-.09-.21v-.31l.11-.24.25-.17.24-.08h1.09l.31.02,2.82.63.17.08.15.12.07.12Z"/>
    <path class="cls-7" d="m87.85,159.23l-.12.07-.13-.11.1-.13.16.03v.14Zm3.77,3.89l-.03.23-.08.26-.12.22-.17.17-.22.19-.19.07-.21.12-.18.08-.26.02h-.52l-.17-.13-.23-.02-.32-.08-.27-.11-.16-.13-.17-.07-.1-.19-.09-.18v-.24l.09-.24.07-.15.12-.17.14-.02.07.14-.07.18-.02.21v.24l.12.18.22.08.23.09.21.08.34.03.22.1.27-.07.22-.07.17-.1.22-.16.17-.13.12-.12.02-.23v-.27l-.08-.21-.17-.22-.24-.08-.28-.14-.11-.1-.31-.16-.22-.13-.24-.1-.15-.08-.22-.06-.15-.02-.21-.12-.19-.12-.12-.21-.12-.17-.08-.22-.02-.26.07-.23.02-.21.1-.24.13-.2.14-.19.03-.1.12-.15h.16l.05-.17.18-.05.19-.1.22-.02.25-.04.32-.1.29-.07h.24l.23.07.17.1.2.16.12.08.13.19.05.12v.24l-.12.18-.12.12-.21.08-.34.03-.27-.03-.23-.02-.26.05-.24.12-.17.12-.16.17-.07.24.1.18.16.14.22.05.16.12.15.13.17.14.15.17.16.03.13.07.12.15.16.07.15.09.17.15.13.17.02.24.05.27.03.24Z"/>
    <path class="cls-7" d="m97.13,164.39l-.05.26-.13.18-.07.06h-.15l-.15-.14.22-.15.02-.19.03-.13-.08-.41-.03-.39-.08-.65.07-.27-.21-.26-.03-.23.05-.16-.08-.2v-.27l-.07-.21-.15-.17-.11-.16-.18-.29-.05-.25-.22-.19-.12-.12h-.22l-.42.08-.17.1-.22.34-.16.45-.07.3-.07.16-.05.29-.02.31v.23l-.03.29v.95l.1.65.02.28.03.29v.21l-.02.27-.07.15-.1.19-.19.02-.13-.07-.12-.15.07-.26-.05-.23-.03-.58-.08-.29.07-.22-.1-.29-.02-.34-.08-.39v-.36l-.03-.16-.16-.71-.05-.18v-.36l-.05-.26-.08-.32-.02-.32.02-.36-.06-.17-.08-.61.05-.51-.12-.23-.05-.39-.07-.32v-.34l.02-.42-.07-.19.07-.15-.02-.29-.14-.29-.05-.32-.07-.15.02-.16-.07-.32-.07-.34-.02-.25.18-.26.08-.21.12.05.07-.13.13-.24.26-.08.29.05.27.02.23.17.21.27.1.22.03.34-.07.22-.1.22-.09.32-.05.39-.03.32v.45l-.07.41.08.31.02.39v.42l.02.37-.02.41v.89l.19-.21.23-.31.48-.17.51.05.34.05.32.12.37.22.26.36.12.21.08.47.07.34v.34l.05.44.02.41v.34l.03.32v.36l-.05.49.05.38.02.3.05.26Z"/>
    <path class="cls-7" d="m102.72,162.15l-.03.29-.06.27-.12.21-.08.22-.14.23-.2.14-.13.2-.27.14-.27.1-.32.03-.32.05-.31.03-.32-.07-.27-.05-.26-.1-.21-.09-.22-.2-.19-.22-.2-.12-.14-.22-.1-.23-.12-.22-.02-.26-.02-.32.04-.23.08-.32v-.32l.1-.32.17-.51.18-.17.03-.19.17-.13.22-.15.21-.12.31-.07.2.03.17.1.1.19.03.17-.02.22-.13.17-.16.2-.1.22-.02.22-.17.16-.09.31-.08.2-.02.31v.26l.05.27.12.22.14.17.18.13.17.17.22.07.27.02.03.05.31-.02.27-.05.31-.21.18-.18.14-.27.05-.26v-.34l-.08-.2-.14-.26-.15-.21-.19-.18-.2-.16-.16-.12-.12-.1-.03-.17.07-.12h.16l.15.1.21.08.13.11.27.18.18.14.12.18.15.22.13.2.07.19.05.31Zm-1.7-1.85l-.1.03-.11-.09.07-.07.11.02.03.11Z"/>
    <path class="cls-7" d="m103.67,161.86l-.05.13-.13.03-.07-.18.14-.07.12.08Zm.34,3.83l-.02.13-.12-.02-.08-.08.13-.1.08.07Zm4.42-4.1l-.06.31-.08.27-.23.54-.22.21-.15.1-.21.11-.24.1-.25.05h-.55l-.22-.05-.17-.05-.13-.17-.07-.17-.02-.16.02-.08.07-.12h.13l.08.07v.17l.03.22.27.15h.26l.17-.03.32-.12.17-.17.25-.32.11-.37.07-.37v-.21l-.12-.22-.07-.22-.02-.24-.1-.17-.1-.19-.11-.15-.17-.12-.17-.05-.23-.07-.24.02-.31.24-.18.18-.09.21-.07.2-.03.27.03.15-.15.14-.12.1-.12.12-.05.15v.24l-.03.23v.19l-.03.2.02.21-.05.15-.07.19-.09.58-.08.37-.03.23-.07.31-.03.36-.14.32-.02.24-.1.27-.08.25-.07.32-.07.29-.03.26-.02.27.02.32.02.19.07.17-.03.16-.17.15-.08.08-.16-.18-.05-.24-.02-.22v-.32l.02-.24.03-.24-.02-.27.05-.07.08-.22.09-.29.07-.17.07-.26.07-.22.09-.2-.11-.29-.02-.34v-.26l.02-.18-.05-.29.03-.51.12-.22-.07-.32.06-.36v-.31l.03-.26-.03-.29.02-.2-.07-.21-.12-.08.05-.19.1-.2.02-.24-.06-.22v-.19l-.07-.17-.26-.4-.1-.49-.02-.15v-.16l.12-.17.17-.19h.27l.52.14.24.07.13.29.05.28.07.12.23-.02.24-.11.61-.08.25.02.29.08.16.09.2.1.22.19.29.47.07.26.1.28.07.24.05.22.04.23.03.31Z"/>
  </g>
</svg>