<?xml version="1.0" encoding="UTF-8"?>
<svg id="Capa_2" data-name="Capa 2" xmlns="http://www.w3.org/2000/svg" viewBox="0 0 183.11 183.11">
  <defs>
    <style>
      .cls-1 {
        fill: none;
      }

      .cls-1, .cls-2, .cls-3, .cls-4 {
        stroke: #313e72;
        stroke-miterlimit: 10;
        stroke-width: 3px;
      }

      .cls-5, .cls-2, .cls-4 {
        fill: #fcd6cd;
      }

      .cls-6, .cls-3 {
        fill: #313e72;
      }

      .cls-2 {
        stroke-linecap: round;
      }
    </style>
  </defs>
  <g id="Capa_3" data-name="Capa 3">
    <g>
      <circle class="cls-4" cx="91.56" cy="91.56" r="90.06"/>
      <path class="cls-2" d="m142.11,165.29V52.06S142.11,1.5,91.56,1.5s-50.56,50.56-50.56,50.56v113.23"/>
      <line class="cls-1" x1="41" y1="95.65" x2="142.11" y2="95.65"/>
      <line class="cls-1" x1="142.11" y1="156.52" x2="41" y2="156.52"/>
      <line class="cls-1" x1="41.52" y1="51" x2="142.64" y2="51"/>
      <path class="cls-3" d="m105.09,95.48s-1.95,13.25-14.59,13.25-13.91-13.25-13.91-13.25"/>
      <line class="cls-4" x1="91.56" y1="2.03" x2="91.56" y2="72.92"/>
      <line class="cls-4" x1="112.62" y1="51" x2="100.94" y2="74.71"/>
      <line class="cls-4" x1="141.06" y1="51" x2="110.19" y2="79.81"/>
      <line class="cls-4" x1="142.11" y1="76.28" x2="117.37" y2="86.05"/>
      <line class="cls-4" x1="70.49" y1="51" x2="81.98" y2="74.71"/>
      <line class="cls-4" x1="42.05" y1="51" x2="73" y2="79.39"/>
      <line class="cls-4" x1="42.05" y1="76.28" x2="64.77" y2="86.08"/>
      <line class="cls-4" x1="142.11" y1="116.17" x2="116.4" y2="104.7"/>
      <line class="cls-4" x1="142.11" y1="138.22" x2="109.5" y2="110.18"/>
      <line class="cls-4" x1="128.42" y1="156.33" x2="102.22" y2="114.37"/>
      <line class="cls-4" x1="90.5" y1="182.14" x2="90.98" y2="117.15"/>
      <line class="cls-4" x1="79.54" y1="114.6" x2="55.74" y2="156.33"/>
      <line class="cls-4" x1="41" y1="138.22" x2="72.68" y2="110.66"/>
      <line class="cls-4" x1="41" y1="115.93" x2="65.83" y2="105.09"/>
      <path class="cls-1" d="m125.16,95.48s-14.65-22.57-33.61-22.57-34.76,22.12-34.76,22.12c0,0,15.8,22.12,33.71,22.12s34.66-21.67,34.66-21.67Z"/>
      <g>
        <path class="cls-5" d="m72.6,88.72s17.91-17.91,36.86,0"/>
        <path class="cls-6" d="m72.6,88.72c2.09-2.8,4.92-5.03,8.07-6.7,3.15-1.68,6.73-2.67,10.39-2.75,3.66-.06,7.33.85,10.48,2.57,3.16,1.71,5.87,4.08,7.93,6.88-2.92-1.89-5.85-3.57-8.91-4.75-3.07-1.15-6.25-1.75-9.45-1.7-3.2.06-6.39.75-9.49,1.88-3.09,1.16-6.1,2.7-9.02,4.57Z"/>
      </g>
    </g>
  </g>
</svg>